<?xml version="1.0" encoding="UTF-8" standalone="no"?>
<!DOCTYPE svg PUBLIC "-//W3C//DTD SVG 1.1//EN"
 "http://www.w3.org/Graphics/SVG/1.1/DTD/svg11.dtd">
<!-- Generated by graphviz version 2.38.0 (20140413.2041)
 -->
<!-- Title: IControl Pages: 1 -->
<!--zoomable 1636 -->
<svg id="main" version="1.1" xmlns="http://www.w3.org/2000/svg" xmlns:xlink="http://www.w3.org/1999/xlink" xml:space="preserve" onload="init(evt)">
<style type="text/css"><![CDATA[
.edge:hover path { stroke: red; }
.edge:hover polygon { stroke: red; fill: red; }
]]></style>
<script type="text/javascript"><![CDATA[
var edges = document.getElementsByTagName('g');
if (edges && edges.length) {
  for (var i=0;i<edges.length;i++) {
    if (edges[i].id.substr(0,4)=='edge') {
      edges[i].setAttribute('class','edge');
    }
  }
}
]]></script>
        <defs>
                <circle id="rim" cx="0" cy="0" r="7"/>
                <circle id="rim2" cx="0" cy="0" r="3.5"/>
                <g id="zoomPlus">
                        <use xlink:href="#rim" fill="#404040">
                                <set attributeName="fill" to="#808080" begin="zoomplus.mouseover" end="zoomplus.mouseout"/>
                        </use>
                        <path d="M-4,0h8M0,-4v8" fill="none" stroke="white" stroke-width="1.5" pointer-events="none"/>
                </g>
                <g id="zoomMin">
                        <use xlink:href="#rim" fill="#404040">
                                <set attributeName="fill" to="#808080" begin="zoomminus.mouseover" end="zoomminus.mouseout"/>
                        </use>
                        <path d="M-4,0h8" fill="none" stroke="white" stroke-width="1.5" pointer-events="none"/>
                </g>
                <g id="dirArrow">
                        <path fill="none" stroke="white" stroke-width="1.5" d="M0,-3.0v7 M-2.5,-0.5L0,-3.0L2.5,-0.5"/>
                </g>
               <g id="resetDef">
                       <use xlink:href="#rim2" fill="#404040">
                               <set attributeName="fill" to="#808080" begin="reset.mouseover" end="reset.mouseout"/>
                       </use>
               </g>
        </defs>

<script type="text/javascript">
var viewWidth = 400;
var viewHeight = 1636;
var sectionId = 'dynsection-0';
</script>
<script xlink:href="svgpan.js"/>
<svg id="graph" class="graph">
<g id="viewport">
<title>IControl</title>
<polygon fill="white" stroke="none" points="-4,4 -4,-1632 396,-1632 396,4 -4,4"/>
<!-- Node1 -->
<g id="node1" class="node"><title>Node1</title>
<polygon fill="#bfbfbf" stroke="black" points="0,-810.5 0,-829.5 53,-829.5 53,-810.5 0,-810.5"/>
<text text-anchor="middle" x="26.5" y="-817.5" font-family="Helvetica,sans-Serif" font-size="10.00">IControl</text>
</g>
<!-- Node2 -->
<g id="node2" class="node"><title>Node2</title>
<g id="a_node2"><a xlink:href="class_g_f_x_label_control.html" target="_top" xlink:title="Control to display the graphics backend. ">
<polygon fill="white" stroke="black" points="116,-1608.5 116,-1627.5 211,-1627.5 211,-1608.5 116,-1608.5"/>
<text text-anchor="middle" x="163.5" y="-1615.5" font-family="Helvetica,sans-Serif" font-size="10.00">GFXLabelControl</text>
</a>
</g>
</g>
<!-- Node1&#45;&gt;Node2 -->
<g id="edge1" class="edge"><title>Node1&#45;&gt;Node2</title>
<path fill="none" stroke="midnightblue" d="M27.7115,-839.744C29.122,-955.123 38.7211,-1539.1 89,-1599 95.7789,-1607.08 105.499,-1611.96 115.659,-1614.86"/>
<polygon fill="midnightblue" stroke="midnightblue" points="31.2091,-839.513 27.5938,-829.555 24.2096,-839.594 31.2091,-839.513"/>
</g>
<!-- Node3 -->
<g id="node3" class="node"><title>Node3</title>
<g id="a_node3"><a xlink:href="class_i_bitmap_control.html" target="_top" xlink:title="A basic control to draw a bitmap, or one frame of a stacked bitmap depending on the current value...">
<polygon fill="white" stroke="black" points="119.5,-1570.5 119.5,-1589.5 207.5,-1589.5 207.5,-1570.5 119.5,-1570.5"/>
<text text-anchor="middle" x="163.5" y="-1577.5" font-family="Helvetica,sans-Serif" font-size="10.00">IBitmapControl</text>
</a>
</g>
</g>
<!-- Node1&#45;&gt;Node3 -->
<g id="edge2" class="edge"><title>Node1&#45;&gt;Node3</title>
<path fill="none" stroke="midnightblue" d="M27.7972,-839.818C29.6547,-951.992 41.1925,-1504.28 89,-1561 96.5596,-1569.97 107.746,-1575 119.125,-1577.74"/>
<polygon fill="midnightblue" stroke="midnightblue" points="31.2935,-839.547 27.6352,-829.604 24.2944,-839.658 31.2935,-839.547"/>
</g>
<!-- Node4 -->
<g id="node4" class="node"><title>Node4</title>
<g id="a_node4"><a xlink:href="class_i_bubble_control.html" target="_top" xlink:title="A special control to draw contextual info as a slider etc is moved If used in the main IControl stack...">
<polygon fill="white" stroke="black" points="120.5,-1532.5 120.5,-1551.5 206.5,-1551.5 206.5,-1532.5 120.5,-1532.5"/>
<text text-anchor="middle" x="163.5" y="-1539.5" font-family="Helvetica,sans-Serif" font-size="10.00">IBubbleControl</text>
</a>
</g>
</g>
<!-- Node1&#45;&gt;Node4 -->
<g id="edge3" class="edge"><title>Node1&#45;&gt;Node4</title>
<path fill="none" stroke="midnightblue" d="M27.891,-839.809C30.2109,-948.494 43.6486,-1469.43 89,-1523 96.835,-1532.25 108.531,-1537.31 120.301,-1539.99"/>
<polygon fill="midnightblue" stroke="midnightblue" points="31.3863,-839.539 27.6807,-829.613 24.3878,-839.684 31.3863,-839.539"/>
</g>
<!-- Node5 -->
<g id="node5" class="node"><title>Node5</title>
<g id="a_node5"><a xlink:href="class_i_button_control_base.html" target="_top" xlink:title="A base class for buttons/momentary switches &#45; cannot be linked to parameters. ">
<polygon fill="white" stroke="black" points="108.5,-1494.5 108.5,-1513.5 218.5,-1513.5 218.5,-1494.5 108.5,-1494.5"/>
<text text-anchor="middle" x="163.5" y="-1501.5" font-family="Helvetica,sans-Serif" font-size="10.00">IButtonControlBase</text>
</a>
</g>
</g>
<!-- Node1&#45;&gt;Node5 -->
<g id="edge4" class="edge"><title>Node1&#45;&gt;Node5</title>
<path fill="none" stroke="midnightblue" d="M27.993,-839.714C30.7901,-944.632 46.0894,-1434.57 89,-1485 94.1248,-1491.02 100.885,-1495.27 108.232,-1498.23"/>
<polygon fill="midnightblue" stroke="midnightblue" points="31.4884,-839.487 27.7303,-829.581 24.4907,-839.668 31.4884,-839.487"/>
</g>
<!-- Node9 -->
<g id="node9" class="node"><title>Node9</title>
<g id="a_node9"><a xlink:href="class_i_color_picker_control.html" target="_top" xlink:title="A control for choosing a color. ">
<polygon fill="white" stroke="black" points="110,-1456.5 110,-1475.5 217,-1475.5 217,-1456.5 110,-1456.5"/>
<text text-anchor="middle" x="163.5" y="-1463.5" font-family="Helvetica,sans-Serif" font-size="10.00">IColorPickerControl</text>
</a>
</g>
</g>
<!-- Node1&#45;&gt;Node9 -->
<g id="edge8" class="edge"><title>Node1&#45;&gt;Node9</title>
<path fill="none" stroke="midnightblue" d="M28.1034,-839.527C31.3921,-940.409 48.5148,-1399.69 89,-1447 94.4842,-1453.41 101.82,-1457.8 109.739,-1460.78"/>
<polygon fill="midnightblue" stroke="midnightblue" points="31.6008,-839.388 27.7843,-829.504 24.6044,-839.611 31.6008,-839.388"/>
</g>
<!-- Node10 -->
<g id="node10" class="node"><title>Node10</title>
<g id="a_node10"><a xlink:href="class_i_corner_resizer_control.html" target="_top" xlink:title="A control for resizing the plug&#45;in window by clicking and dragging in the bottom right&#45;hand corner Th...">
<polygon fill="white" stroke="black" points="104,-1418.5 104,-1437.5 223,-1437.5 223,-1418.5 104,-1418.5"/>
<text text-anchor="middle" x="163.5" y="-1425.5" font-family="Helvetica,sans-Serif" font-size="10.00">ICornerResizerControl</text>
</a>
</g>
</g>
<!-- Node1&#45;&gt;Node10 -->
<g id="edge9" class="edge"><title>Node1&#45;&gt;Node10</title>
<path fill="none" stroke="midnightblue" d="M28.2468,-839.864C32.0966,-937.642 51.0053,-1364.88 89,-1409 93.1282,-1413.79 98.2923,-1417.46 103.959,-1420.25"/>
<polygon fill="midnightblue" stroke="midnightblue" points="31.7432,-839.701 27.8601,-829.844 24.7484,-839.971 31.7432,-839.701"/>
</g>
<!-- Node11 -->
<g id="node11" class="node"><title>Node11</title>
<g id="a_node11"><a xlink:href="class_i_dir_browse_control_base.html" target="_top" xlink:title="An abstract IControl base class that you can inherit from in order to make a control that pops up a m...">
<polygon fill="white" stroke="black" points="101,-1380.5 101,-1399.5 226,-1399.5 226,-1380.5 101,-1380.5"/>
<text text-anchor="middle" x="163.5" y="-1387.5" font-family="Helvetica,sans-Serif" font-size="10.00">IDirBrowseControlBase</text>
</a>
</g>
</g>
<!-- Node1&#45;&gt;Node11 -->
<g id="edge10" class="edge"><title>Node1&#45;&gt;Node11</title>
<path fill="none" stroke="midnightblue" d="M28.3915,-839.741C32.7926,-933.385 53.4307,-1329.99 89,-1371 92.368,-1374.88 96.4157,-1378.02 100.858,-1380.56"/>
<polygon fill="midnightblue" stroke="midnightblue" points="31.8833,-839.48 27.9256,-829.653 24.8907,-839.803 31.8833,-839.48"/>
</g>
<!-- Node13 -->
<g id="node13" class="node"><title>Node13</title>
<g id="a_node13"><a xlink:href="class_i_f_p_s_display_control.html" target="_top" xlink:title="Performance display meter, based on code from NanoVG This is a special control that lives outside the...">
<polygon fill="white" stroke="black" points="110.5,-1342.5 110.5,-1361.5 216.5,-1361.5 216.5,-1342.5 110.5,-1342.5"/>
<text text-anchor="middle" x="163.5" y="-1349.5" font-family="Helvetica,sans-Serif" font-size="10.00">IFPSDisplayControl</text>
</a>
</g>
</g>
<!-- Node1&#45;&gt;Node13 -->
<g id="edge12" class="edge"><title>Node1&#45;&gt;Node13</title>
<path fill="none" stroke="midnightblue" d="M28.5808,-840.06C33.6124,-930.216 55.906,-1295.16 89,-1333 94.6397,-1339.45 102.154,-1343.85 110.227,-1346.82"/>
<polygon fill="midnightblue" stroke="midnightblue" points="32.0626,-839.632 28.0192,-829.84 25.0732,-840.017 32.0626,-839.632"/>
</g>
<!-- Node14 -->
<g id="node14" class="node"><title>Node14</title>
<g id="a_node14"><a xlink:href="class_i_graphics_live_edit.html" target="_top" xlink:title="A control to enable live modification of control layout in an IGraphics context in debug builds This ...">
<polygon fill="white" stroke="black" points="114.5,-1304.5 114.5,-1323.5 212.5,-1323.5 212.5,-1304.5 114.5,-1304.5"/>
<text text-anchor="middle" x="163.5" y="-1311.5" font-family="Helvetica,sans-Serif" font-size="10.00">IGraphicsLiveEdit</text>
</a>
</g>
</g>
<!-- Node1&#45;&gt;Node14 -->
<g id="edge13" class="edge"><title>Node1&#45;&gt;Node14</title>
<path fill="none" stroke="midnightblue" d="M27.2253,-840.207C26.536,-921.826 28.151,-1226.08 89,-1295 95.6296,-1302.51 104.801,-1307.23 114.42,-1310.17"/>
<polygon fill="midnightblue" stroke="midnightblue" points="30.729,-839.872 27.3369,-829.835 23.7294,-839.797 30.729,-839.872"/>
</g>
<!-- Node15 -->
<g id="node15" class="node"><title>Node15</title>
<g id="a_node15"><a xlink:href="class_i_knob_control_base.html" target="_top" xlink:title="A base class for knob/dial controls, to handle mouse action and Sender. ">
<polygon fill="white" stroke="red" points="113,-1266.5 113,-1285.5 214,-1285.5 214,-1266.5 113,-1266.5"/>
<text text-anchor="middle" x="163.5" y="-1273.5" font-family="Helvetica,sans-Serif" font-size="10.00">IKnobControlBase</text>
</a>
</g>
</g>
<!-- Node1&#45;&gt;Node15 -->
<g id="edge14" class="edge"><title>Node1&#45;&gt;Node15</title>
<path fill="none" stroke="midnightblue" d="M27.4779,-840.059C27.8077,-917.287 32.9433,-1194.21 89,-1257 95.3199,-1264.08 103.899,-1268.68 112.966,-1271.63"/>
<polygon fill="midnightblue" stroke="midnightblue" points="30.9775,-839.794 27.4589,-829.8 23.9775,-839.807 30.9775,-839.794"/>
</g>
<!-- Node17 -->
<g id="node17" class="node"><title>Node17</title>
<g id="a_node17"><a xlink:href="class_i_lambda_control.html" target="_top" xlink:title="A control that can be specialised with a lambda function, for quick experiments without making a cust...">
<polygon fill="white" stroke="black" points="117.5,-1228.5 117.5,-1247.5 209.5,-1247.5 209.5,-1228.5 117.5,-1228.5"/>
<text text-anchor="middle" x="163.5" y="-1235.5" font-family="Helvetica,sans-Serif" font-size="10.00">ILambdaControl</text>
</a>
</g>
</g>
<!-- Node1&#45;&gt;Node17 -->
<g id="edge16" class="edge"><title>Node1&#45;&gt;Node17</title>
<path fill="none" stroke="midnightblue" d="M27.7689,-839.7C29.1621,-912.109 37.6723,-1162.26 89,-1219 96.3388,-1227.11 106.645,-1231.96 117.223,-1234.81"/>
<polygon fill="midnightblue" stroke="midnightblue" points="31.2679,-839.601 27.601,-829.661 24.2688,-839.719 31.2679,-839.601"/>
</g>
<!-- Node18 -->
<g id="node18" class="node"><title>Node18</title>
<g id="a_node18"><a xlink:href="class_i_panel_control.html" target="_top" xlink:title="A basic control to fill a rectangle with a color or gradient. ">
<polygon fill="white" stroke="black" points="124,-1190.5 124,-1209.5 203,-1209.5 203,-1190.5 124,-1190.5"/>
<text text-anchor="middle" x="163.5" y="-1197.5" font-family="Helvetica,sans-Serif" font-size="10.00">IPanelControl</text>
</a>
</g>
</g>
<!-- Node1&#45;&gt;Node18 -->
<g id="edge17" class="edge"><title>Node1&#45;&gt;Node18</title>
<path fill="none" stroke="midnightblue" d="M28.1319,-839.98C30.6966,-908.193 42.5344,-1130.45 89,-1181 97.919,-1190.7 111.085,-1195.73 123.82,-1198.24"/>
<polygon fill="midnightblue" stroke="midnightblue" points="31.6216,-839.623 27.7749,-829.751 24.6259,-839.867 31.6216,-839.623"/>
</g>
<!-- Node19 -->
<g id="node19" class="node"><title>Node19</title>
<g id="a_node19"><a xlink:href="class_i_popup_menu_control.html" target="_top" xlink:title="A base control for a pop&#45;up menu/drop&#45;down list that stays within the bounds of the IGraphics context...">
<polygon fill="white" stroke="black" points="108.5,-1152.5 108.5,-1171.5 218.5,-1171.5 218.5,-1152.5 108.5,-1152.5"/>
<text text-anchor="middle" x="163.5" y="-1159.5" font-family="Helvetica,sans-Serif" font-size="10.00">IPopupMenuControl</text>
</a>
</g>
</g>
<!-- Node1&#45;&gt;Node19 -->
<g id="edge18" class="edge"><title>Node1&#45;&gt;Node19</title>
<path fill="none" stroke="midnightblue" d="M28.5662,-839.897C32.3613,-903.217 47.291,-1098.5 89,-1143 94.3175,-1148.67 101.088,-1152.74 108.359,-1155.64"/>
<polygon fill="midnightblue" stroke="midnightblue" points="32.047,-839.46 27.9832,-829.676 25.0584,-839.859 32.047,-839.46"/>
</g>
<!-- Node20 -->
<g id="node20" class="node"><title>Node20</title>
<g id="a_node20"><a xlink:href="class_i_slider_control_base.html" target="_top" xlink:title="A base class for slider/fader controls, to handle mouse action and Sender. ">
<polygon fill="white" stroke="red" points="111.5,-1114.5 111.5,-1133.5 215.5,-1133.5 215.5,-1114.5 111.5,-1114.5"/>
<text text-anchor="middle" x="163.5" y="-1121.5" font-family="Helvetica,sans-Serif" font-size="10.00">ISliderControlBase</text>
</a>
</g>
</g>
<!-- Node1&#45;&gt;Node20 -->
<g id="edge19" class="edge"><title>Node1&#45;&gt;Node20</title>
<path fill="none" stroke="midnightblue" d="M29.1085,-839.804C34.2271,-897.948 52.0211,-1066.49 89,-1105 95.1166,-1111.37 103.066,-1115.71 111.47,-1118.64"/>
<polygon fill="midnightblue" stroke="midnightblue" points="32.5857,-839.386 28.2519,-829.719 25.6108,-839.979 32.5857,-839.386"/>
</g>
<!-- Node21 -->
<g id="node21" class="node"><title>Node21</title>
<g id="a_node21"><a xlink:href="class_i_s_v_g_control.html" target="_top" xlink:title="A basic control to draw an SVG image to the screen. ">
<polygon fill="white" stroke="black" points="126.5,-1076.5 126.5,-1095.5 200.5,-1095.5 200.5,-1076.5 126.5,-1076.5"/>
<text text-anchor="middle" x="163.5" y="-1083.5" font-family="Helvetica,sans-Serif" font-size="10.00">ISVGControl</text>
</a>
</g>
</g>
<!-- Node1&#45;&gt;Node21 -->
<g id="edge20" class="edge"><title>Node1&#45;&gt;Node21</title>
<path fill="none" stroke="midnightblue" d="M29.7864,-839.536C36.3162,-892.035 56.6858,-1034.4 89,-1067 98.8345,-1076.92 113.126,-1081.89 126.498,-1084.3"/>
<polygon fill="midnightblue" stroke="midnightblue" points="33.2492,-839.017 28.5733,-829.51 26.2999,-839.858 33.2492,-839.017"/>
</g>
<!-- Node22 -->
<g id="node22" class="node"><title>Node22</title>
<g id="a_node22"><a xlink:href="class_i_switch_control_base.html" target="_top" xlink:title="A base class for switch controls. ">
<polygon fill="white" stroke="red" points="109.5,-1038.5 109.5,-1057.5 217.5,-1057.5 217.5,-1038.5 109.5,-1038.5"/>
<text text-anchor="middle" x="163.5" y="-1045.5" font-family="Helvetica,sans-Serif" font-size="10.00">ISwitchControlBase</text>
</a>
</g>
</g>
<!-- Node1&#45;&gt;Node22 -->
<g id="edge21" class="edge"><title>Node1&#45;&gt;Node22</title>
<path fill="none" stroke="midnightblue" d="M27.2561,-839.656C27.8621,-880.93 35.3259,-977.08 89,-1029 94.6838,-1034.5 101.741,-1038.46 109.215,-1041.31"/>
<polygon fill="midnightblue" stroke="midnightblue" points="30.756,-839.545 27.2344,-829.553 23.756,-839.56 30.756,-839.545"/>
</g>
<!-- Node23 -->
<g id="node23" class="node"><title>Node23</title>
<g id="a_node23"><a xlink:href="class_i_text_control.html" target="_top" xlink:title="A basic control to display some text. ">
<polygon fill="white" stroke="red" points="127.5,-1000.5 127.5,-1019.5 199.5,-1019.5 199.5,-1000.5 127.5,-1000.5"/>
<text text-anchor="middle" x="163.5" y="-1007.5" font-family="Helvetica,sans-Serif" font-size="10.00">ITextControl</text>
</a>
</g>
</g>
<!-- Node1&#45;&gt;Node23 -->
<g id="edge22" class="edge"><title>Node1&#45;&gt;Node23</title>
<path fill="none" stroke="midnightblue" d="M28.8013,-839.962C32.2315,-875.672 44.6118,-950.53 89,-991 99.4213,-1000.5 113.971,-1005.38 127.378,-1007.84"/>
<polygon fill="midnightblue" stroke="midnightblue" points="32.2767,-839.517 27.9728,-829.836 25.3,-840.088 32.2767,-839.517"/>
</g>
<!-- Node24 -->
<g id="node24" class="node"><title>Node24</title>
<g id="a_node24"><a xlink:href="class_i_text_entry_control.html" target="_top" xlink:title="A Text entry widget drawn by IGraphics. ">
<polygon fill="white" stroke="black" points="115,-962.5 115,-981.5 212,-981.5 212,-962.5 115,-962.5"/>
<text text-anchor="middle" x="163.5" y="-969.5" font-family="Helvetica,sans-Serif" font-size="10.00">ITextEntryControl</text>
</a>
</g>
</g>
<!-- Node1&#45;&gt;Node24 -->
<g id="edge23" class="edge"><title>Node1&#45;&gt;Node24</title>
<path fill="none" stroke="midnightblue" d="M31.0571,-839.586C37.4023,-868.764 53.4924,-923.375 89,-953 96.3877,-959.164 105.539,-963.357 114.847,-966.203"/>
<polygon fill="midnightblue" stroke="midnightblue" points="34.483,-838.869 29.0821,-829.755 27.6201,-840.248 34.483,-838.869"/>
</g>
<!-- Node25 -->
<g id="node25" class="node"><title>Node25</title>
<g id="a_node25"><a xlink:href="class_i_v_color_swatch_control.html" target="_top" xlink:title="IVColorSwatchControl">
<polygon fill="white" stroke="black" points="104,-924.5 104,-943.5 223,-943.5 223,-924.5 104,-924.5"/>
<text text-anchor="middle" x="163.5" y="-931.5" font-family="Helvetica,sans-Serif" font-size="10.00">IVColorSwatchControl</text>
</a>
</g>
</g>
<!-- Node1&#45;&gt;Node25 -->
<g id="edge24" class="edge"><title>Node1&#45;&gt;Node25</title>
<path fill="none" stroke="midnightblue" d="M34.8837,-839.28C44.1972,-860.992 62.2919,-895.746 89,-915 94.3457,-918.854 100.407,-921.927 106.7,-924.377"/>
<polygon fill="midnightblue" stroke="midnightblue" points="38.0332,-837.734 31.0177,-829.795 31.5509,-840.376 38.0332,-837.734"/>
</g>
<!-- Node26 -->
<g id="node26" class="node"><title>Node26</title>
<g id="a_node26"><a xlink:href="class_i_v_display_control.html" target="_top" xlink:title="IVDisplayControl">
<polygon fill="white" stroke="black" points="116,-886.5 116,-905.5 211,-905.5 211,-886.5 116,-886.5"/>
<text text-anchor="middle" x="163.5" y="-893.5" font-family="Helvetica,sans-Serif" font-size="10.00">IVDisplayControl</text>
</a>
</g>
</g>
<!-- Node1&#45;&gt;Node26 -->
<g id="edge25" class="edge"><title>Node1&#45;&gt;Node26</title>
<path fill="none" stroke="midnightblue" d="M41.8621,-837.311C53.3562,-850.08 70.5573,-866.92 89,-877 97.2112,-881.488 106.521,-884.948 115.689,-887.605"/>
<polygon fill="midnightblue" stroke="midnightblue" points="44.379,-834.872 35.1772,-829.62 39.0956,-839.464 44.379,-834.872"/>
</g>
<!-- Node27 -->
<g id="node27" class="node"><title>Node27</title>
<g id="a_node27"><a xlink:href="class_i_v_group_control.html" target="_top" xlink:title="IVGroupControl">
<polygon fill="white" stroke="black" points="119,-848.5 119,-867.5 208,-867.5 208,-848.5 119,-848.5"/>
<text text-anchor="middle" x="163.5" y="-855.5" font-family="Helvetica,sans-Serif" font-size="10.00">IVGroupControl</text>
</a>
</g>
</g>
<!-- Node1&#45;&gt;Node27 -->
<g id="edge26" class="edge"><title>Node1&#45;&gt;Node27</title>
<path fill="none" stroke="midnightblue" d="M62.8438,-831.228C71.3841,-833.856 80.4999,-836.59 89,-839 100.412,-842.236 112.884,-845.545 124.261,-848.476"/>
<polygon fill="midnightblue" stroke="midnightblue" points="63.742,-827.843 53.1539,-828.219 61.6655,-834.528 63.742,-827.843"/>
</g>
<!-- Node28 -->
<g id="node28" class="node"><title>Node28</title>
<g id="a_node28"><a xlink:href="class_i_v_keyboard_control.html" target="_top" xlink:title="Vectorial keyboard control. ">
<polygon fill="white" stroke="black" points="111.5,-810.5 111.5,-829.5 215.5,-829.5 215.5,-810.5 111.5,-810.5"/>
<text text-anchor="middle" x="163.5" y="-817.5" font-family="Helvetica,sans-Serif" font-size="10.00">IVKeyboardControl</text>
</a>
</g>
</g>
<!-- Node1&#45;&gt;Node28 -->
<g id="edge27" class="edge"><title>Node1&#45;&gt;Node28</title>
<path fill="none" stroke="midnightblue" d="M63.4165,-820C78.1378,-820 95.4467,-820 111.443,-820"/>
<polygon fill="midnightblue" stroke="midnightblue" points="63.2103,-816.5 53.2102,-820 63.2102,-823.5 63.2103,-816.5"/>
</g>
<!-- Node29 -->
<g id="node29" class="node"><title>Node29</title>
<g id="a_node29"><a xlink:href="class_i_v_plot_control.html" target="_top" xlink:title="a vector plot to display functions and waveforms ">
<polygon fill="white" stroke="black" points="124.5,-772.5 124.5,-791.5 202.5,-791.5 202.5,-772.5 124.5,-772.5"/>
<text text-anchor="middle" x="163.5" y="-779.5" font-family="Helvetica,sans-Serif" font-size="10.00">IVPlotControl</text>
</a>
</g>
</g>
<!-- Node1&#45;&gt;Node29 -->
<g id="edge28" class="edge"><title>Node1&#45;&gt;Node29</title>
<path fill="none" stroke="midnightblue" d="M62.8438,-808.772C71.3841,-806.144 80.4999,-803.41 89,-801 100.412,-797.764 112.884,-794.455 124.261,-791.524"/>
<polygon fill="midnightblue" stroke="midnightblue" points="61.6655,-805.472 53.1539,-811.781 63.742,-812.157 61.6655,-805.472"/>
</g>
<!-- Node30 -->
<g id="node30" class="node"><title>Node30</title>
<g id="a_node30"><a xlink:href="class_i_v_scope_control.html" target="_top" xlink:title="Vectorial multichannel capable oscilloscope control. ">
<polygon fill="white" stroke="black" points="93.5,-723 93.5,-753 233.5,-753 233.5,-723 93.5,-723"/>
<text text-anchor="start" x="101.5" y="-741" font-family="Helvetica,sans-Serif" font-size="10.00">IVScopeControl&lt; MAXNC,</text>
<text text-anchor="middle" x="163.5" y="-730" font-family="Helvetica,sans-Serif" font-size="10.00"> MAXBUF, QUEUE_SIZE &gt;</text>
</a>
</g>
</g>
<!-- Node1&#45;&gt;Node30 -->
<g id="edge29" class="edge"><title>Node1&#45;&gt;Node30</title>
<path fill="none" stroke="midnightblue" d="M42.4827,-802.649C54.0887,-790.136 71.1527,-773.641 89,-763 95.3672,-759.204 102.391,-755.885 109.496,-753.013"/>
<polygon fill="midnightblue" stroke="midnightblue" points="39.7792,-800.421 35.6907,-810.195 44.9821,-805.104 39.7792,-800.421"/>
</g>
<!-- Node31 -->
<g id="node31" class="node"><title>Node31</title>
<g id="a_node31"><a xlink:href="class_i_v_track_control_base.html" target="_top" xlink:title="A base class for mult&#45;strip/track controls, such as multi&#45;sliders, meters. ">
<polygon fill="white" stroke="red" points="109.5,-684.5 109.5,-703.5 217.5,-703.5 217.5,-684.5 109.5,-684.5"/>
<text text-anchor="middle" x="163.5" y="-691.5" font-family="Helvetica,sans-Serif" font-size="10.00">IVTrackControlBase</text>
</a>
</g>
</g>
<!-- Node1&#45;&gt;Node31 -->
<g id="edge30" class="edge"><title>Node1&#45;&gt;Node31</title>
<path fill="none" stroke="midnightblue" d="M33.5632,-800.693C42.0804,-776.753 59.891,-736.377 89,-714 94.9762,-709.406 101.935,-705.866 109.142,-703.139"/>
<polygon fill="midnightblue" stroke="midnightblue" points="30.1648,-799.819 30.2967,-810.413 36.8001,-802.049 30.1648,-799.819"/>
</g>
<!-- Node32 -->
<g id="node32" class="node"><title>Node32</title>
<g id="a_node32"><a xlink:href="class_i_v_x_y_pad_control.html" target="_top" xlink:title="IVXYPadControl">
<polygon fill="white" stroke="black" points="119,-646.5 119,-665.5 208,-665.5 208,-646.5 119,-646.5"/>
<text text-anchor="middle" x="163.5" y="-653.5" font-family="Helvetica,sans-Serif" font-size="10.00">IVXYPadControl</text>
</a>
</g>
</g>
<!-- Node1&#45;&gt;Node32 -->
<g id="edge31" class="edge"><title>Node1&#45;&gt;Node32</title>
<path fill="none" stroke="midnightblue" d="M30.2815,-800.021C35.7317,-768.62 50.8127,-707.91 89,-675 97.3864,-667.772 108.183,-663.242 118.904,-660.418"/>
<polygon fill="midnightblue" stroke="midnightblue" points="26.7834,-799.735 28.6843,-810.158 33.6981,-800.825 26.7834,-799.735"/>
</g>
<!-- Node33 -->
<g id="node33" class="node"><title>Node33</title>
<g id="a_node33"><a xlink:href="class_test_animation_control.html" target="_top" xlink:title="Control to test animation. ">
<polygon fill="white" stroke="black" points="104,-608.5 104,-627.5 223,-627.5 223,-608.5 104,-608.5"/>
<text text-anchor="middle" x="163.5" y="-615.5" font-family="Helvetica,sans-Serif" font-size="10.00">TestAnimationControl</text>
</a>
</g>
</g>
<!-- Node1&#45;&gt;Node33 -->
<g id="edge32" class="edge"><title>Node1&#45;&gt;Node33</title>
<path fill="none" stroke="midnightblue" d="M28.2381,-800.234C30.7407,-762.736 41.6512,-681.09 89,-637 93.3405,-632.958 98.4261,-629.75 103.861,-627.208"/>
<polygon fill="midnightblue" stroke="midnightblue" points="24.7355,-800.192 27.7003,-810.363 31.7256,-800.563 24.7355,-800.192"/>
</g>
<!-- Node34 -->
<g id="node34" class="node"><title>Node34</title>
<g id="a_node34"><a xlink:href="class_test_bezier_control.html" target="_top" xlink:title="Control to test drawing bezier curves. ">
<polygon fill="white" stroke="black" points="113.5,-570.5 113.5,-589.5 213.5,-589.5 213.5,-570.5 113.5,-570.5"/>
<text text-anchor="middle" x="163.5" y="-577.5" font-family="Helvetica,sans-Serif" font-size="10.00">TestBezierControl</text>
</a>
</g>
</g>
<!-- Node1&#45;&gt;Node34 -->
<g id="edge33" class="edge"><title>Node1&#45;&gt;Node34</title>
<path fill="none" stroke="midnightblue" d="M26.877,-800.122C26.6661,-757.035 32.5085,-654.459 89,-599 95.6777,-592.444 104.305,-588.064 113.287,-585.156"/>
<polygon fill="midnightblue" stroke="midnightblue" points="23.382,-800.452 27.0532,-810.391 30.381,-800.332 23.382,-800.452"/>
</g>
<!-- Node35 -->
<g id="node35" class="node"><title>Node35</title>
<g id="a_node35"><a xlink:href="class_test_color_control.html" target="_top" xlink:title="Control to colors. ">
<polygon fill="white" stroke="black" points="116,-532.5 116,-551.5 211,-551.5 211,-532.5 116,-532.5"/>
<text text-anchor="middle" x="163.5" y="-539.5" font-family="Helvetica,sans-Serif" font-size="10.00">TestColorControl</text>
</a>
</g>
</g>
<!-- Node1&#45;&gt;Node35 -->
<g id="edge34" class="edge"><title>Node1&#45;&gt;Node35</title>
<path fill="none" stroke="midnightblue" d="M29.5687,-800.236C35.6587,-745.799 55.2457,-595.43 89,-561 96.1968,-553.659 105.831,-549.028 115.75,-546.136"/>
<polygon fill="midnightblue" stroke="midnightblue" points="26.0738,-800.001 28.4738,-810.32 33.0329,-800.756 26.0738,-800.001"/>
</g>
<!-- Node36 -->
<g id="node36" class="node"><title>Node36</title>
<g id="a_node36"><a xlink:href="class_test_cursor_control.html" target="_top" xlink:title="Control to test changing the platform cursor. ">
<polygon fill="white" stroke="black" points="113,-494.5 113,-513.5 214,-513.5 214,-494.5 113,-494.5"/>
<text text-anchor="middle" x="163.5" y="-501.5" font-family="Helvetica,sans-Serif" font-size="10.00">TestCursorControl</text>
</a>
</g>
</g>
<!-- Node1&#45;&gt;Node36 -->
<g id="edge35" class="edge"><title>Node1&#45;&gt;Node36</title>
<path fill="none" stroke="midnightblue" d="M28.9227,-800.171C33.6117,-740.365 50.5293,-563.395 89,-523 95.4536,-516.224 103.981,-511.745 112.936,-508.81"/>
<polygon fill="midnightblue" stroke="midnightblue" points="25.4061,-800.26 28.1452,-810.495 32.3864,-800.786 25.4061,-800.26"/>
</g>
<!-- Node37 -->
<g id="node37" class="node"><title>Node37</title>
<g id="a_node37"><a xlink:href="class_test_draw_context_control.html" target="_top" xlink:title="Control to test obtaining a drawing API (NanoVG, LICE, Cairo, AGG etc) context and using that API wit...">
<polygon fill="white" stroke="black" points="98,-456.5 98,-475.5 229,-475.5 229,-456.5 98,-456.5"/>
<text text-anchor="middle" x="163.5" y="-463.5" font-family="Helvetica,sans-Serif" font-size="10.00">TestDrawContextControl</text>
</a>
</g>
</g>
<!-- Node1&#45;&gt;Node37 -->
<g id="edge36" class="edge"><title>Node1&#45;&gt;Node37</title>
<path fill="none" stroke="midnightblue" d="M28.4122,-800.206C31.7974,-735.456 45.7625,-531.441 89,-485 92.5924,-481.141 96.8566,-478.025 101.495,-475.513"/>
<polygon fill="midnightblue" stroke="midnightblue" points="24.9114,-800.138 27.9128,-810.299 31.9028,-800.484 24.9114,-800.138"/>
</g>
<!-- Node38 -->
<g id="node38" class="node"><title>Node38</title>
<g id="a_node38"><a xlink:href="class_test_drop_shadow_control.html" target="_top" xlink:title="Control to test layer drop shadows. ">
<polygon fill="white" stroke="black" points="98,-418.5 98,-437.5 229,-437.5 229,-418.5 98,-418.5"/>
<text text-anchor="middle" x="163.5" y="-425.5" font-family="Helvetica,sans-Serif" font-size="10.00">TestDropShadowControl</text>
</a>
</g>
</g>
<!-- Node1&#45;&gt;Node38 -->
<g id="edge37" class="edge"><title>Node1&#45;&gt;Node38</title>
<path fill="none" stroke="midnightblue" d="M28.004,-800.253C30.1787,-730.859 40.9683,-499.538 89,-447 92.4683,-443.206 96.5857,-440.128 101.074,-437.634"/>
<polygon fill="midnightblue" stroke="midnightblue" points="24.5047,-800.182 27.7159,-810.279 31.5018,-800.383 24.5047,-800.182"/>
</g>
<!-- Node39 -->
<g id="node39" class="node"><title>Node39</title>
<g id="a_node39"><a xlink:href="class_test_flex_box_control.html" target="_top" xlink:title="Control to test IGraphicsFlexBox. ">
<polygon fill="white" stroke="black" points="110,-380.5 110,-399.5 217,-399.5 217,-380.5 110,-380.5"/>
<text text-anchor="middle" x="163.5" y="-387.5" font-family="Helvetica,sans-Serif" font-size="10.00">TestFlexBoxControl</text>
</a>
</g>
</g>
<!-- Node1&#45;&gt;Node39 -->
<g id="edge38" class="edge"><title>Node1&#45;&gt;Node39</title>
<path fill="none" stroke="midnightblue" d="M27.6723,-800.197C28.7234,-726.265 36.178,-467.648 89,-409 94.5569,-402.83 101.83,-398.546 109.638,-395.594"/>
<polygon fill="midnightblue" stroke="midnightblue" points="24.1701,-800.377 27.5526,-810.418 31.1696,-800.459 24.1701,-800.377"/>
</g>
<!-- Node40 -->
<g id="node40" class="node"><title>Node40</title>
<g id="a_node40"><a xlink:href="class_test_font_control.html" target="_top" xlink:title="Control to test drawing fonts. ">
<polygon fill="white" stroke="black" points="118,-342.5 118,-361.5 209,-361.5 209,-342.5 118,-342.5"/>
<text text-anchor="middle" x="163.5" y="-349.5" font-family="Helvetica,sans-Serif" font-size="10.00">TestFontControl</text>
</a>
</g>
</g>
<!-- Node1&#45;&gt;Node40 -->
<g id="edge39" class="edge"><title>Node1&#45;&gt;Node40</title>
<path fill="none" stroke="midnightblue" d="M27.394,-799.907C27.3958,-721.294 31.4282,-435.725 89,-371 96.4456,-362.629 107.05,-357.723 117.894,-354.903"/>
<polygon fill="midnightblue" stroke="midnightblue" points="23.8949,-800.328 27.4189,-810.32 30.8949,-800.311 23.8949,-800.328"/>
</g>
<!-- Node41 -->
<g id="node41" class="node"><title>Node41</title>
<g id="a_node41"><a xlink:href="class_test_g_l_control.html" target="_top" xlink:title="TestGLControl">
<polygon fill="white" stroke="black" points="122,-304.5 122,-323.5 205,-323.5 205,-304.5 122,-304.5"/>
<text text-anchor="middle" x="163.5" y="-311.5" font-family="Helvetica,sans-Serif" font-size="10.00">TestGLControl</text>
</a>
</g>
</g>
<!-- Node1&#45;&gt;Node41 -->
<g id="edge40" class="edge"><title>Node1&#45;&gt;Node41</title>
<path fill="none" stroke="midnightblue" d="M27.1568,-800.078C26.1511,-717.608 26.5517,-403.954 89,-333 97.2723,-323.601 109.527,-318.561 121.669,-315.94"/>
<polygon fill="midnightblue" stroke="midnightblue" points="23.6606,-800.374 27.3049,-810.322 30.6599,-800.272 23.6606,-800.374"/>
</g>
<!-- Node42 -->
<g id="node42" class="node"><title>Node42</title>
<g id="a_node42"><a xlink:href="class_test_image_control.html" target="_top" xlink:title="Control to test drawing bitmaps. ">
<polygon fill="white" stroke="black" points="113.5,-266.5 113.5,-285.5 213.5,-285.5 213.5,-266.5 113.5,-266.5"/>
<text text-anchor="middle" x="163.5" y="-273.5" font-family="Helvetica,sans-Serif" font-size="10.00">TestImageControl</text>
</a>
</g>
</g>
<!-- Node1&#45;&gt;Node42 -->
<g id="edge41" class="edge"><title>Node1&#45;&gt;Node42</title>
<path fill="none" stroke="midnightblue" d="M28.502,-800.338C33.2983,-709.577 55.0883,-333.882 89,-295 95.324,-287.749 104.018,-283.088 113.216,-280.13"/>
<polygon fill="midnightblue" stroke="midnightblue" points="25.0044,-800.203 27.9802,-810.371 31.9949,-800.566 25.0044,-800.203"/>
</g>
<!-- Node43 -->
<g id="node43" class="node"><title>Node43</title>
<g id="a_node43"><a xlink:href="class_test_keyboard_control.html" target="_top" xlink:title="Control to test keyboard input. ">
<polygon fill="white" stroke="black" points="106.5,-228.5 106.5,-247.5 220.5,-247.5 220.5,-228.5 106.5,-228.5"/>
<text text-anchor="middle" x="163.5" y="-235.5" font-family="Helvetica,sans-Serif" font-size="10.00">TestKeyboardControl</text>
</a>
</g>
</g>
<!-- Node1&#45;&gt;Node43 -->
<g id="edge42" class="edge"><title>Node1&#45;&gt;Node43</title>
<path fill="none" stroke="midnightblue" d="M28.3482,-800.121C32.5817,-704.978 52.6778,-298.976 89,-257 93.7433,-251.518 99.8411,-247.515 106.492,-244.608"/>
<polygon fill="midnightblue" stroke="midnightblue" points="24.8505,-799.995 27.9106,-810.138 31.8439,-800.3 24.8505,-799.995"/>
</g>
<!-- Node44 -->
<g id="node44" class="node"><title>Node44</title>
<g id="a_node44"><a xlink:href="class_test_m_p_s_control.html" target="_top" xlink:title="TestMPSControl">
<polygon fill="white" stroke="black" points="118,-190.5 118,-209.5 209,-209.5 209,-190.5 118,-190.5"/>
<text text-anchor="middle" x="163.5" y="-197.5" font-family="Helvetica,sans-Serif" font-size="10.00">TestMPSControl</text>
</a>
</g>
</g>
<!-- Node1&#45;&gt;Node44 -->
<g id="edge43" class="edge"><title>Node1&#45;&gt;Node44</title>
<path fill="none" stroke="midnightblue" d="M28.1948,-800.363C31.8532,-701.821 50.2037,-264.146 89,-219 96.3016,-210.503 106.857,-205.554 117.702,-202.734"/>
<polygon fill="midnightblue" stroke="midnightblue" points="24.6946,-800.307 27.8289,-810.428 31.69,-800.562 24.6946,-800.307"/>
</g>
<!-- Node45 -->
<g id="node45" class="node"><title>Node45</title>
<g id="a_node45"><a xlink:href="class_test_m_t_control.html" target="_top" xlink:title="Control to test multi touch. ">
<polygon fill="white" stroke="black" points="122,-152.5 122,-171.5 205,-171.5 205,-152.5 122,-152.5"/>
<text text-anchor="middle" x="163.5" y="-159.5" font-family="Helvetica,sans-Serif" font-size="10.00">TestMTControl</text>
</a>
</g>
</g>
<!-- Node1&#45;&gt;Node45 -->
<g id="edge44" class="edge"><title>Node1&#45;&gt;Node45</title>
<path fill="none" stroke="midnightblue" d="M28.0769,-800.1C31.2322,-697.293 47.7913,-229.246 89,-181 97.2176,-171.379 109.608,-166.302 121.886,-163.714"/>
<polygon fill="midnightblue" stroke="midnightblue" points="24.572,-800.214 27.7712,-810.314 31.5689,-800.423 24.572,-800.214"/>
</g>
<!-- Node46 -->
<g id="node46" class="node"><title>Node46</title>
<g id="a_node46"><a xlink:href="class_test_shadow_gradient_control.html" target="_top" xlink:title="Control to test drawing shadows with gradients. ">
<polygon fill="white" stroke="black" points="89,-114.5 89,-133.5 238,-133.5 238,-114.5 89,-114.5"/>
<text text-anchor="middle" x="163.5" y="-121.5" font-family="Helvetica,sans-Serif" font-size="10.00">TestShadowGradientControl</text>
</a>
</g>
</g>
<!-- Node1&#45;&gt;Node46 -->
<g id="edge45" class="edge"><title>Node1&#45;&gt;Node46</title>
<path fill="none" stroke="midnightblue" d="M27.9677,-799.932C30.6337,-693.125 45.3633,-194.367 89,-143 92.2426,-139.183 96.142,-136.081 100.432,-133.565"/>
<polygon fill="midnightblue" stroke="midnightblue" points="24.4611,-800.165 27.7179,-810.247 31.4591,-800.334 24.4611,-800.165"/>
</g>
<!-- Node47 -->
<g id="node47" class="node"><title>Node47</title>
<g id="a_node47"><a xlink:href="class_test_size_control.html" target="_top" xlink:title="Control to display the size of a region. ">
<polygon fill="white" stroke="black" points="118.5,-76.5 118.5,-95.5 208.5,-95.5 208.5,-76.5 118.5,-76.5"/>
<text text-anchor="middle" x="163.5" y="-83.5" font-family="Helvetica,sans-Serif" font-size="10.00">TestSizeControl</text>
</a>
</g>
</g>
<!-- Node1&#45;&gt;Node47 -->
<g id="edge46" class="edge"><title>Node1&#45;&gt;Node47</title>
<path fill="none" stroke="midnightblue" d="M27.8601,-800.201C30.031,-690.434 42.8715,-159.564 89,-105 96.4028,-96.2434 107.263,-91.2441 118.375,-88.4598"/>
<polygon fill="midnightblue" stroke="midnightblue" points="24.3555,-800.414 27.6642,-810.479 31.3542,-800.548 24.3555,-800.414"/>
</g>
<!-- Node48 -->
<g id="node48" class="node"><title>Node48</title>
<g id="a_node48"><a xlink:href="class_test_s_v_g_control.html" target="_top" xlink:title="Control to test drawing SVGs. ">
<polygon fill="white" stroke="black" points="118,-38.5 118,-57.5 209,-57.5 209,-38.5 118,-38.5"/>
<text text-anchor="middle" x="163.5" y="-45.5" font-family="Helvetica,sans-Serif" font-size="10.00">TestSVGControl</text>
</a>
</g>
</g>
<!-- Node1&#45;&gt;Node48 -->
<g id="edge47" class="edge"><title>Node1&#45;&gt;Node48</title>
<path fill="none" stroke="midnightblue" d="M27.7692,-800.206C29.4833,-687.012 40.4123,-124.725 89,-67 96.2991,-58.3283 106.989,-53.3386 117.967,-50.5358"/>
<polygon fill="midnightblue" stroke="midnightblue" points="24.2691,-800.191 27.624,-810.241 31.2684,-800.293 24.2691,-800.191"/>
</g>
<!-- Node49 -->
<g id="node49" class="node"><title>Node49</title>
<g id="a_node49"><a xlink:href="class_test_text_control.html" target="_top" xlink:title="Control to test drawing text. ">
<polygon fill="white" stroke="black" points="119,-0.5 119,-19.5 208,-19.5 208,-0.5 119,-0.5"/>
<text text-anchor="middle" x="163.5" y="-7.5" font-family="Helvetica,sans-Serif" font-size="10.00">TestTextControl</text>
</a>
</g>
</g>
<!-- Node1&#45;&gt;Node49 -->
<g id="edge48" class="edge"><title>Node1&#45;&gt;Node49</title>
<path fill="none" stroke="midnightblue" d="M27.6898,-799.953C28.9763,-682.801 37.9875,-89.8462 89,-29 96.4515,-20.1121 107.465,-15.0895 118.711,-12.325"/>
<polygon fill="midnightblue" stroke="midnightblue" points="24.1865,-800.263 27.5832,-810.299 31.1861,-800.335 24.1865,-800.263"/>
</g>
<!-- Node6 -->
<g id="node6" class="node"><title>Node6</title>
<g id="a_node6"><a xlink:href="class_i_b_button_control.html" target="_top" xlink:title="A bitmap button/momentary switch control. ">
<polygon fill="white" stroke="black" points="287,-1532.5 287,-1551.5 379,-1551.5 379,-1532.5 287,-1532.5"/>
<text text-anchor="middle" x="333" y="-1539.5" font-family="Helvetica,sans-Serif" font-size="10.00">IBButtonControl</text>
</a>
</g>
</g>
<!-- Node5&#45;&gt;Node6 -->
<g id="edge5" class="edge"><title>Node5&#45;&gt;Node6</title>
<path fill="none" stroke="midnightblue" d="M216.62,-1515.82C240.235,-1521.18 267.782,-1527.43 290.037,-1532.48"/>
<polygon fill="midnightblue" stroke="midnightblue" points="217.294,-1512.39 206.767,-1513.59 215.745,-1519.21 217.294,-1512.39"/>
</g>
<!-- Node7 -->
<g id="node7" class="node"><title>Node7</title>
<g id="a_node7"><a xlink:href="class_i_s_v_g_button_control.html" target="_top" xlink:title="A vector button/momentary switch control which shows two SVG states. ">
<polygon fill="white" stroke="black" points="279.5,-1494.5 279.5,-1513.5 386.5,-1513.5 386.5,-1494.5 279.5,-1494.5"/>
<text text-anchor="middle" x="333" y="-1501.5" font-family="Helvetica,sans-Serif" font-size="10.00">ISVGButtonControl</text>
</a>
</g>
</g>
<!-- Node5&#45;&gt;Node7 -->
<g id="edge6" class="edge"><title>Node5&#45;&gt;Node7</title>
<path fill="none" stroke="midnightblue" d="M229.069,-1504C245.691,-1504 263.379,-1504 279.317,-1504"/>
<polygon fill="midnightblue" stroke="midnightblue" points="228.882,-1500.5 218.882,-1504 228.882,-1507.5 228.882,-1500.5"/>
</g>
<!-- Node8 -->
<g id="node8" class="node"><title>Node8</title>
<g id="a_node8"><a xlink:href="class_i_v_button_control.html" target="_top" xlink:title="A vector button/momentary switch control. ">
<polygon fill="white" stroke="black" points="287,-1456.5 287,-1475.5 379,-1475.5 379,-1456.5 287,-1456.5"/>
<text text-anchor="middle" x="333" y="-1463.5" font-family="Helvetica,sans-Serif" font-size="10.00">IVButtonControl</text>
</a>
</g>
</g>
<!-- Node5&#45;&gt;Node8 -->
<g id="edge7" class="edge"><title>Node5&#45;&gt;Node8</title>
<path fill="none" stroke="midnightblue" d="M216.62,-1492.18C240.235,-1486.82 267.782,-1480.57 290.037,-1475.52"/>
<polygon fill="midnightblue" stroke="midnightblue" points="215.745,-1488.79 206.767,-1494.41 217.294,-1495.61 215.745,-1488.79"/>
</g>
<!-- Node12 -->
<g id="node12" class="node"><title>Node12</title>
<g id="a_node12"><a xlink:href="class_test_dir_browse_control.html" target="_top" xlink:title="Control to test IDirBrowseControlBase. ">
<polygon fill="white" stroke="black" points="274,-1380.5 274,-1399.5 392,-1399.5 392,-1380.5 274,-1380.5"/>
<text text-anchor="middle" x="333" y="-1387.5" font-family="Helvetica,sans-Serif" font-size="10.00">TestDirBrowseControl</text>
</a>
</g>
</g>
<!-- Node11&#45;&gt;Node12 -->
<g id="edge11" class="edge"><title>Node11&#45;&gt;Node12</title>
<path fill="none" stroke="midnightblue" d="M236.739,-1390C249.179,-1390 261.965,-1390 273.97,-1390"/>
<polygon fill="midnightblue" stroke="midnightblue" points="236.395,-1386.5 226.395,-1390 236.395,-1393.5 236.395,-1386.5"/>
</g>
<!-- Node16 -->
<g id="node16" class="node"><title>Node16</title>
<g id="a_node16"><a xlink:href="class_i_b_knob_control.html" target="_top" xlink:title="A bitmap knob/dial control that draws a frame from a stacked bitmap. ">
<polygon fill="white" stroke="red" points="291,-1266.5 291,-1285.5 375,-1285.5 375,-1266.5 291,-1266.5"/>
<text text-anchor="middle" x="333" y="-1273.5" font-family="Helvetica,sans-Serif" font-size="10.00">IBKnobControl</text>
</a>
</g>
</g>
<!-- Node15&#45;&gt;Node16 -->
<g id="edge15" class="edge"><title>Node15&#45;&gt;Node16</title>
<path fill="none" stroke="midnightblue" d="M224.542,-1276C246.526,-1276 270.886,-1276 290.846,-1276"/>
<polygon fill="midnightblue" stroke="midnightblue" points="224.302,-1272.5 214.302,-1276 224.302,-1279.5 224.302,-1272.5"/>
</g>
</g>
</svg>
        <g id="navigator" transform="translate(0 0)" fill="#404254">
                <rect fill="#f2f5e9" fill-opacity="0.5" stroke="#606060" stroke-width=".5" x="0" y="0" width="60" height="60"/>
                <use id="zoomplus" xlink:href="#zoomPlus" x="17" y="9" onmousedown="handleZoom(evt,'in')"/>
                <use id="zoomminus" xlink:href="#zoomMin" x="42" y="9" onmousedown="handleZoom(evt,'out')"/>
                <use id="reset" xlink:href="#resetDef" x="30" y="36" onmousedown="handleReset()"/>
                <g id="arrowUp" xlink:href="#dirArrow" transform="translate(30 24)" onmousedown="handlePan(0,-1)">
                  <use xlink:href="#rim" fill="#404040">
                        <set attributeName="fill" to="#808080" begin="arrowUp.mouseover" end="arrowUp.mouseout"/>
                  </use>
                  <path fill="none" stroke="white" stroke-width="1.5" d="M0,-3.0v7 M-2.5,-0.5L0,-3.0L2.5,-0.5"/>
                </g>
                <g id="arrowRight" xlink:href="#dirArrow" transform="rotate(90) translate(36 -43)" onmousedown="handlePan(1,0)">
                  <use xlink:href="#rim" fill="#404040">
                        <set attributeName="fill" to="#808080" begin="arrowRight.mouseover" end="arrowRight.mouseout"/>
                  </use>
                  <path fill="none" stroke="white" stroke-width="1.5" d="M0,-3.0v7 M-2.5,-0.5L0,-3.0L2.5,-0.5"/>
                </g>
                <g id="arrowDown" xlink:href="#dirArrow" transform="rotate(180) translate(-30 -48)" onmousedown="handlePan(0,1)">
                  <use xlink:href="#rim" fill="#404040">
                        <set attributeName="fill" to="#808080" begin="arrowDown.mouseover" end="arrowDown.mouseout"/>
                  </use>
                  <path fill="none" stroke="white" stroke-width="1.5" d="M0,-3.0v7 M-2.5,-0.5L0,-3.0L2.5,-0.5"/>
                </g>
                <g id="arrowLeft" xlink:href="#dirArrow" transform="rotate(270) translate(-36 17)" onmousedown="handlePan(-1,0)">
                  <use xlink:href="#rim" fill="#404040">
                        <set attributeName="fill" to="#808080" begin="arrowLeft.mouseover" end="arrowLeft.mouseout"/>
                  </use>
                  <path fill="none" stroke="white" stroke-width="1.5" d="M0,-3.0v7 M-2.5,-0.5L0,-3.0L2.5,-0.5"/>
                </g>
        </g>
        <svg viewBox="0 0 15 15" width="100%" height="30px" preserveAspectRatio="xMaxYMin meet">
         <g id="arrow_out" transform="scale(0.3 0.3)">
          <a xlink:href="class_i_control__inherit__graph_org.svg" target="_base">
           <rect id="button" ry="5" rx="5" y="6" x="6" height="38" width="38"
                fill="#f2f5e9" fill-opacity="0.5" stroke="#606060" stroke-width="1.0"/>
           <path id="arrow"
             d="M 11.500037,31.436501 C 11.940474,20.09759 22.043105,11.32322 32.158766,21.979434 L 37.068811,17.246167 C 37.068811,17.246167 37.088388,32 37.088388,32 L 22.160133,31.978069 C 22.160133,31.978069 26.997745,27.140456 26.997745,27.140456 C 18.528582,18.264221 13.291696,25.230495 11.500037,31.436501 z"
             style="fill:#404040;"/>
          </a>
         </g>
        </svg>
</svg>
